<svg xmlns="http://www.w3.org/2000/svg" viewBox="0 0 64 64" width="64" height="64">
  <defs>
    <radialGradient id="bg" cx="50%" cy="40%" r="60%">
      <stop offset="0%" stop-color="#5a3320"/>
      <stop offset="100%" stop-color="#1f0e07"/>
    </radialGradient>
  </defs>
  <circle cx="32" cy="32" r="32" fill="url(#bg)"/>
  <!-- stylized portrait silhouette -->
  <path d="M32 14c-7 0-12 5-12 12 0 5 2 9 5 11-3 1-9 4-11 9-1 3-1 6-1 9h38c0-3 0-6-1-9-2-5-8-8-11-9 3-2 5-6 5-11 0-7-5-12-12-12z"
        fill="#e8d9c4" opacity="0.92"/>
  <!-- moustache hint -->
  <path d="M26 33c2 1 4 1 6 1s4 0 6-1" stroke="#5a3320" stroke-width="1.2" fill="none" stroke-linecap="round"/>
</svg>
